<svg xmlns="http://www.w3.org/2000/svg" fill="none" aria-hidden="true" focusable="false" width="16" height="16" viewBox="0 0 16 16"><path d="M7.49102 0.997349C7.7031 0.581777 8.2969 0.581776 8.50898 0.997348L10.266 4.44028C10.3491 4.60298 10.5049 4.71618 10.6853 4.74487L14.5026 5.35199C14.9634 5.42527 15.1469 5.99001 14.8172 6.32013L12.0857 9.0551C11.9567 9.18435 11.8971 9.36751 11.9256 9.54794L12.5278 13.3661C12.6005 13.827 12.1201 14.176 11.7043 13.9644L8.2591 12.2118C8.09629 12.129 7.90371 12.129 7.7409 12.2118L4.29572 13.9644C3.87987 14.176 3.39948 13.827 3.47217 13.3661L4.0744 9.54794C4.10286 9.36751 4.04334 9.18435 3.91427 9.0551L1.1828 6.32013C0.853103 5.99001 1.0366 5.42527 1.49737 5.35199L5.31475 4.74487C5.49514 4.71618 5.65095 4.60298 5.73398 4.44028L7.49102 0.997349Z" fill="#F4512B"/></svg>
